<svg width="24" height="24" viewBox="0 0 24 24" fill="none" xmlns="http://www.w3.org/2000/svg">
<path d="M7.48125 9.34687H2.98125V4.84688" stroke="#5F6C72" stroke-width="1.5" stroke-linecap="round" stroke-linejoin="round"/>
<path d="M17.8312 6.16875C17.0659 5.40226 16.1569 4.79419 15.1563 4.37931C14.1557 3.96442 13.0832 3.75088 12 3.75088C10.9168 3.75088 9.84425 3.96442 8.84367 4.37931C7.84309 4.79419 6.93412 5.40226 6.16875 6.16875L2.98125 9.34687" stroke="#5F6C72" stroke-width="1.5" stroke-linecap="round" stroke-linejoin="round"/>
<path d="M16.5187 14.6531H21.0187V19.1531" stroke="#5F6C72" stroke-width="1.5" stroke-linecap="round" stroke-linejoin="round"/>
<path d="M6.16875 17.8312C6.93412 18.5977 7.84309 19.2058 8.84367 19.6207C9.84425 20.0356 10.9168 20.2491 12 20.2491C13.0832 20.2491 14.1557 20.0356 15.1563 19.6207C16.1569 19.2058 17.0659 18.5977 17.8312 17.8312L21.0187 14.6531" stroke="#5F6C72" stroke-width="1.5" stroke-linecap="round" stroke-linejoin="round"/>
</svg>
