<svg width="24" height="24" viewBox="0 0 24 24" fill="none" xmlns="http://www.w3.org/2000/svg">
<path d="M16.5187 9.34687H21.0187V4.84688" stroke="#475156" stroke-width="1.5" stroke-linecap="round" stroke-linejoin="round"/>
<path d="M6.16875 6.16875C6.93412 5.40226 7.84309 4.79419 8.84367 4.37931C9.84425 3.96442 10.9168 3.75088 12 3.75088C13.0832 3.75088 14.1557 3.96442 15.1563 4.37931C16.1569 4.79419 17.0659 5.40226 17.8312 6.16875L21.0187 9.34687" stroke="#475156" stroke-width="1.5" stroke-linecap="round" stroke-linejoin="round"/>
<path d="M7.48125 14.6531H2.98125V19.1531" stroke="#475156" stroke-width="1.5" stroke-linecap="round" stroke-linejoin="round"/>
<path d="M17.8312 17.8312C17.0659 18.5977 16.1569 19.2058 15.1563 19.6207C14.1557 20.0356 13.0832 20.2491 12 20.2491C10.9168 20.2491 9.84425 20.0356 8.84367 19.6207C7.84309 19.2058 6.93412 18.5977 6.16875 17.8312L2.98125 14.6531" stroke="#475156" stroke-width="1.5" stroke-linecap="round" stroke-linejoin="round"/>
</svg>
