<svg width="40" height="40" viewBox="0 0 40 40" fill="none" xmlns="http://www.w3.org/2000/svg">
<path d="M8.75 8.75V17.3594C8.75 23.5625 13.7187 28.7031 19.9219 28.75C21.4058 28.7603 22.8771 28.4769 24.2511 27.9162C25.625 27.3554 26.8744 26.5284 27.9274 25.4827C28.9803 24.437 29.816 23.1933 30.3862 21.8233C30.9565 20.4533 31.25 18.984 31.25 17.5V8.75C31.25 8.41848 31.1183 8.10054 30.8839 7.86612C30.6495 7.6317 30.3315 7.5 30 7.5H10C9.66848 7.5 9.35054 7.6317 9.11612 7.86612C8.8817 8.10054 8.75 8.41848 8.75 8.75Z" stroke="#191C1F" stroke-width="1.5" stroke-linecap="round" stroke-linejoin="round"/>
<path fill-rule="evenodd" clip-rule="evenodd" d="M14.25 35C14.25 34.5858 14.5858 34.25 15 34.25H25C25.4142 34.25 25.75 34.5858 25.75 35C25.75 35.4142 25.4142 35.75 25 35.75H15C14.5858 35.75 14.25 35.4142 14.25 35Z" fill="#191C1F"/>
<path fill-rule="evenodd" clip-rule="evenodd" d="M20 28C20.4142 28 20.75 28.3358 20.75 28.75V35C20.75 35.4142 20.4142 35.75 20 35.75C19.5858 35.75 19.25 35.4142 19.25 35V28.75C19.25 28.3358 19.5858 28 20 28Z" fill="#191C1F"/>
<path d="M30.9688 20H32.5C33.8261 20 35.0979 19.4732 36.0355 18.5355C36.9732 17.5979 37.5 16.3261 37.5 15V12.5C37.5 12.1685 37.3683 11.8505 37.1339 11.6161C36.8995 11.3817 36.5815 11.25 36.25 11.25H31.25" stroke="#191C1F" stroke-width="1.5" stroke-linecap="round" stroke-linejoin="round"/>
<path d="M9.0625 20H7.48438C6.15829 20 4.88652 19.4732 3.94884 18.5355C3.01116 17.5979 2.48438 16.3261 2.48438 15V12.5C2.48438 12.1685 2.61607 11.8505 2.85049 11.6161C3.08491 11.3817 3.40285 11.25 3.73438 11.25H8.73438" stroke="#191C1F" stroke-width="1.5" stroke-linecap="round" stroke-linejoin="round"/>
</svg>
