<svg width="40" height="40" viewBox="0 0 40 40" fill="none" xmlns="http://www.w3.org/2000/svg">
<path d="M35 27.7031V12.2969C34.9988 12.0743 34.939 11.856 34.8265 11.664C34.714 11.472 34.5529 11.313 34.3594 11.2031L20.6094 3.46875C20.4241 3.36178 20.2139 3.30547 20 3.30547C19.7861 3.30547 19.5759 3.36178 19.3906 3.46875L5.64062 11.2031C5.44711 11.313 5.28599 11.472 5.17352 11.664C5.06105 11.856 5.0012 12.0743 5 12.2969V27.7031C5.0012 27.9257 5.06105 28.144 5.17352 28.336C5.28599 28.528 5.44711 28.687 5.64062 28.7969L19.3906 36.5313C19.5759 36.6382 19.7861 36.6945 20 36.6945C20.2139 36.6945 20.4241 36.6382 20.6094 36.5313L34.3594 28.7969C34.5529 28.687 34.714 28.528 34.8265 28.336C34.939 28.144 34.9988 27.9257 35 27.7031V27.7031Z" stroke="#191C1F" stroke-width="1.5" stroke-linecap="round" stroke-linejoin="round"/>
<path d="M27.6562 23.8281V15.7031L12.5 7.34375" stroke="#191C1F" stroke-width="1.5" stroke-linecap="round" stroke-linejoin="round"/>
<path d="M34.8281 11.6562L20.1406 20L5.17188 11.6562" stroke="#191C1F" stroke-width="1.5" stroke-linecap="round" stroke-linejoin="round"/>
<path fill-rule="evenodd" clip-rule="evenodd" d="M20.1469 19.25C20.5611 19.2535 20.8941 19.5921 20.8906 20.0063L20.75 36.6938C20.7465 37.108 20.4079 37.441 19.9937 37.4375C19.5795 37.434 19.2465 37.0954 19.25 36.6812L19.3907 19.9937C19.3941 19.5795 19.7327 19.2465 20.1469 19.25Z" fill="#191C1F"/>
</svg>
