<svg width="24" height="24" viewBox="0 0 24 24" fill="none" xmlns="http://www.w3.org/2000/svg">
<path d="M4.25625 16.5938C3.13958 14.7098 2.74898 12.483 3.15779 10.3314C3.56659 8.17982 4.74668 6.25145 6.47651 4.90831C8.20635 3.56516 10.367 2.8996 12.5527 3.03659C14.7385 3.17357 16.7991 4.10367 18.3477 5.65227C19.8963 7.20088 20.8264 9.26149 20.9634 11.4473C21.1004 13.633 20.4348 15.7937 19.0917 17.5235C17.7485 19.2533 15.8202 20.4334 13.6686 20.8422C11.517 21.251 9.29024 20.8604 7.40625 19.7438L4.29375 20.625C4.16623 20.6623 4.03102 20.6646 3.9023 20.6317C3.77358 20.5987 3.65609 20.5318 3.56214 20.4379C3.4682 20.3439 3.40125 20.2264 3.36832 20.0977C3.3354 19.969 3.3377 19.8338 3.375 19.7062L4.25625 16.5938Z" stroke="black" stroke-width="1.5" stroke-linecap="round" stroke-linejoin="round"/>
<path d="M12 13.125C12.6213 13.125 13.125 12.6213 13.125 12C13.125 11.3787 12.6213 10.875 12 10.875C11.3787 10.875 10.875 11.3787 10.875 12C10.875 12.6213 11.3787 13.125 12 13.125Z" fill="black"/>
<path d="M7.5 13.125C8.12132 13.125 8.625 12.6213 8.625 12C8.625 11.3787 8.12132 10.875 7.5 10.875C6.87868 10.875 6.375 11.3787 6.375 12C6.375 12.6213 6.87868 13.125 7.5 13.125Z" fill="black"/>
<path d="M16.5 13.125C17.1213 13.125 17.625 12.6213 17.625 12C17.625 11.3787 17.1213 10.875 16.5 10.875C15.8787 10.875 15.375 11.3787 15.375 12C15.375 12.6213 15.8787 13.125 16.5 13.125Z" fill="black"/>
</svg>
