<svg width="40" height="40" viewBox="0 0 40 40" fill="none" xmlns="http://www.w3.org/2000/svg">
<path d="M35 8.75H5C4.30964 8.75 3.75 9.30964 3.75 10V30C3.75 30.6904 4.30964 31.25 5 31.25H35C35.6904 31.25 36.25 30.6904 36.25 30V10C36.25 9.30964 35.6904 8.75 35 8.75Z" stroke="#191C1F" stroke-width="1.5" stroke-linecap="round" stroke-linejoin="round"/>
<path fill-rule="evenodd" clip-rule="evenodd" d="M25.5 26.25C25.5 25.8358 25.8358 25.5 26.25 25.5H31.25C31.6642 25.5 32 25.8358 32 26.25C32 26.6642 31.6642 27 31.25 27H26.25C25.8358 27 25.5 26.6642 25.5 26.25Z" fill="#191C1F"/>
<path fill-rule="evenodd" clip-rule="evenodd" d="M18 26.25C18 25.8358 18.3358 25.5 18.75 25.5H21.25C21.6642 25.5 22 25.8358 22 26.25C22 26.6642 21.6642 27 21.25 27H18.75C18.3358 27 18 26.6642 18 26.25Z" fill="#191C1F"/>
<path fill-rule="evenodd" clip-rule="evenodd" d="M3 15.1406C3 14.7264 3.33579 14.3906 3.75 14.3906H36.25C36.6642 14.3906 37 14.7264 37 15.1406C37 15.5548 36.6642 15.8906 36.25 15.8906H3.75C3.33579 15.8906 3 15.5548 3 15.1406Z" fill="#191C1F"/>
</svg>
