<svg width="80" height="16" viewBox="0 0 80 16" fill="none" xmlns="http://www.w3.org/2000/svg">
<path d="M8.275 11.9187L11.425 13.9187C11.8313 14.175 12.3313 13.7937 12.2125 13.325L11.3 9.7375C11.2753 9.63806 11.2793 9.53367 11.3113 9.43636C11.3434 9.33906 11.4023 9.25279 11.4813 9.1875L14.3063 6.83125C14.675 6.525 14.4875 5.90625 14.0063 5.875L10.3188 5.6375C10.2181 5.63165 10.1214 5.59661 10.0404 5.53667C9.95936 5.47674 9.89754 5.3945 9.8625 5.3L8.4875 1.8375C8.4511 1.73744 8.3848 1.651 8.29758 1.58992C8.21037 1.52884 8.10648 1.49608 8 1.49608C7.89353 1.49608 7.78963 1.52884 7.70242 1.58992C7.6152 1.651 7.5489 1.73744 7.5125 1.8375L6.1375 5.3C6.10246 5.3945 6.04065 5.47674 5.95962 5.53667C5.87859 5.59661 5.78186 5.63165 5.68125 5.6375L1.99375 5.875C1.5125 5.90625 1.325 6.525 1.69375 6.83125L4.51875 9.1875C4.59771 9.25279 4.65662 9.33906 4.68868 9.43636C4.72075 9.53367 4.72467 9.63806 4.7 9.7375L3.85625 13.0625C3.7125 13.625 4.3125 14.0812 4.79375 13.775L7.725 11.9187C7.8072 11.8665 7.90259 11.8387 8 11.8387C8.09741 11.8387 8.1928 11.8665 8.275 11.9187V11.9187Z" fill="#FCE000"/>
<path d="M24.275 11.9187L27.425 13.9187C27.8313 14.175 28.3312 13.7937 28.2125 13.325L27.3 9.7375C27.2753 9.63806 27.2792 9.53367 27.3113 9.43636C27.3434 9.33906 27.4023 9.25279 27.4813 9.1875L30.3063 6.83125C30.675 6.525 30.4875 5.90625 30.0063 5.875L26.3188 5.6375C26.2181 5.63165 26.1214 5.59661 26.0404 5.53667C25.9594 5.47674 25.8975 5.3945 25.8625 5.3L24.4875 1.8375C24.4511 1.73744 24.3848 1.651 24.2976 1.58992C24.2104 1.52884 24.1065 1.49608 24 1.49608C23.8935 1.49608 23.7896 1.52884 23.7024 1.58992C23.6152 1.651 23.5489 1.73744 23.5125 1.8375L22.1375 5.3C22.1025 5.3945 22.0406 5.47674 21.9596 5.53667C21.8786 5.59661 21.7819 5.63165 21.6812 5.6375L17.9937 5.875C17.5125 5.90625 17.325 6.525 17.6937 6.83125L20.5187 9.1875C20.5977 9.25279 20.6566 9.33906 20.6887 9.43636C20.7208 9.53367 20.7247 9.63806 20.7 9.7375L19.8562 13.0625C19.7125 13.625 20.3125 14.0812 20.7937 13.775L23.725 11.9187C23.8072 11.8665 23.9026 11.8387 24 11.8387C24.0974 11.8387 24.1928 11.8665 24.275 11.9187V11.9187Z" fill="#FCE000"/>
<path d="M40.275 11.9187L43.425 13.9187C43.8313 14.175 44.3313 13.7937 44.2125 13.325L43.3 9.7375C43.2753 9.63806 43.2793 9.53367 43.3113 9.43636C43.3434 9.33906 43.4023 9.25279 43.4813 9.1875L46.3063 6.83125C46.675 6.525 46.4875 5.90625 46.0063 5.875L42.3188 5.6375C42.2181 5.63165 42.1214 5.59661 42.0404 5.53667C41.9594 5.47674 41.8975 5.3945 41.8625 5.3L40.4875 1.8375C40.4511 1.73744 40.3848 1.651 40.2976 1.58992C40.2104 1.52884 40.1065 1.49608 40 1.49608C39.8935 1.49608 39.7896 1.52884 39.7024 1.58992C39.6152 1.651 39.5489 1.73744 39.5125 1.8375L38.1375 5.3C38.1025 5.3945 38.0406 5.47674 37.9596 5.53667C37.8786 5.59661 37.7819 5.63165 37.6813 5.6375L33.9938 5.875C33.5125 5.90625 33.325 6.525 33.6938 6.83125L36.5188 9.1875C36.5977 9.25279 36.6566 9.33906 36.6887 9.43636C36.7208 9.53367 36.7247 9.63806 36.7 9.7375L35.8563 13.0625C35.7125 13.625 36.3125 14.0812 36.7938 13.775L39.725 11.9187C39.8072 11.8665 39.9026 11.8387 40 11.8387C40.0974 11.8387 40.1928 11.8665 40.275 11.9187V11.9187Z" fill="#FCE000"/>
<path d="M56.275 11.9187L59.425 13.9187C59.8313 14.175 60.3313 13.7937 60.2125 13.325L59.3 9.7375C59.2753 9.63806 59.2793 9.53367 59.3113 9.43636C59.3434 9.33906 59.4023 9.25279 59.4813 9.1875L62.3063 6.83125C62.675 6.525 62.4875 5.90625 62.0063 5.875L58.3188 5.6375C58.2181 5.63165 58.1214 5.59661 58.0404 5.53667C57.9594 5.47674 57.8975 5.3945 57.8625 5.3L56.4875 1.8375C56.4511 1.73744 56.3848 1.651 56.2976 1.58992C56.2104 1.52884 56.1065 1.49608 56 1.49608C55.8935 1.49608 55.7896 1.52884 55.7024 1.58992C55.6152 1.651 55.5489 1.73744 55.5125 1.8375L54.1375 5.3C54.1025 5.3945 54.0406 5.47674 53.9596 5.53667C53.8786 5.59661 53.7819 5.63165 53.6813 5.6375L49.9938 5.875C49.5125 5.90625 49.325 6.525 49.6938 6.83125L52.5188 9.1875C52.5977 9.25279 52.6566 9.33906 52.6887 9.43636C52.7208 9.53367 52.7247 9.63806 52.7 9.7375L51.8563 13.0625C51.7125 13.625 52.3125 14.0812 52.7938 13.775L55.725 11.9187C55.8072 11.8665 55.9026 11.8387 56 11.8387C56.0974 11.8387 56.1928 11.8665 56.275 11.9187V11.9187Z" fill="#FCE000"/>
<path d="M72.275 11.9187L75.425 13.9187C75.8312 14.175 76.3312 13.7937 76.2125 13.325L75.3 9.7375C75.2753 9.63806 75.2792 9.53367 75.3113 9.43636C75.3434 9.33906 75.4023 9.25279 75.4812 9.1875L78.3062 6.83125C78.675 6.525 78.4875 5.90625 78.0062 5.875L74.3187 5.6375C74.2181 5.63165 74.1214 5.59661 74.0404 5.53667C73.9594 5.47674 73.8975 5.3945 73.8625 5.3L72.4875 1.8375C72.4511 1.73744 72.3848 1.651 72.2976 1.58992C72.2104 1.52884 72.1065 1.49608 72 1.49608C71.8935 1.49608 71.7896 1.52884 71.7024 1.58992C71.6152 1.651 71.5489 1.73744 71.5125 1.8375L70.1375 5.3C70.1025 5.3945 70.0406 5.47674 69.9596 5.53667C69.8786 5.59661 69.7819 5.63165 69.6812 5.6375L65.9937 5.875C65.5125 5.90625 65.325 6.525 65.6937 6.83125L68.5187 9.1875C68.5977 9.25279 68.6566 9.33906 68.6887 9.43636C68.7207 9.53367 68.7247 9.63806 68.7 9.7375L67.8562 13.0625C67.7125 13.625 68.3125 14.0812 68.7937 13.775L71.725 11.9187C71.8072 11.8665 71.9026 11.8387 72 11.8387C72.0974 11.8387 72.1928 11.8665 72.275 11.9187V11.9187Z" fill="#FCE000"/>
</svg>
